<svg width="376" height="34" viewBox="0 0 376 34" fill="none" xmlns="http://www.w3.org/2000/svg">
<path d="M0.49 32.5H-0.26C-0.26 32.9142 0.0757866 33.25 0.49 33.25V32.5ZM0.49 1.15V0.399998C0.0757866 0.399998 -0.26 0.735785 -0.26 1.15H0.49ZM15.861 2.347L16.1498 1.65483L16.1498 1.65483L15.861 2.347ZM20.877 5.691L20.3467 6.22133L20.349 6.22366L20.877 5.691ZM24.24 10.707L23.5478 10.9958L23.5502 11.0013L24.24 10.707ZM24.259 23.019L24.9505 23.3094L24.9505 23.3094L24.259 23.019ZM20.896 27.997L20.3704 27.462L20.368 27.4643L20.896 27.997ZM15.861 31.322L16.1459 32.0158L16.1482 32.0148L15.861 31.322ZM7.805 25.945H7.055C7.055 26.3592 7.39079 26.695 7.805 26.695V25.945ZM12.308 25.28L12.5965 25.9723L12.6034 25.9694L12.308 25.28ZM15.063 23.38L14.5203 22.8623L14.5201 22.8625L15.063 23.38ZM16.887 20.492L16.1901 20.2148L16.1885 20.219L16.887 20.492ZM16.906 13.196L16.2064 13.4663L16.2074 13.469L16.906 13.196ZM15.082 10.289L14.5393 10.8067L14.5393 10.8067L15.082 10.289ZM12.308 8.389L12.0125 9.07839L12.0195 9.08131L12.308 8.389ZM7.805 7.705V6.955C7.39079 6.955 7.055 7.29079 7.055 7.705H7.805ZM1.24 32.5V1.15H-0.26V32.5H1.24ZM0.49 1.9H9.648V0.399998H0.49V1.9ZM9.648 1.9C11.7858 1.9 13.7578 2.28216 15.5722 3.03917L16.1498 1.65483C14.1389 0.815838 11.9689 0.399998 9.648 0.399998V1.9ZM15.5722 3.03917C17.3968 3.80041 18.9862 4.86085 20.3467 6.22133L21.4073 5.16067C19.9051 3.65848 18.1506 2.48958 16.1498 1.65483L15.5722 3.03917ZM20.349 6.22366C21.7214 7.58396 22.7872 9.17264 23.5478 10.9958L24.9322 10.4182C24.0968 8.41603 22.9206 6.6607 21.405 5.15834L20.349 6.22366ZM23.5502 11.0013C24.3185 12.8022 24.706 14.7533 24.706 16.863H26.206C26.206 14.5647 25.7828 12.4118 24.9298 10.4127L23.5502 11.0013ZM24.706 16.863C24.706 18.9743 24.3243 20.9268 23.5675 22.7286L24.9505 23.3094C25.7897 21.3112 26.206 19.1597 26.206 16.863H24.706ZM23.5675 22.7286C22.8073 24.5386 21.7421 26.1143 20.3704 27.462L21.4216 28.532C22.9379 27.0423 24.1147 25.2994 24.9505 23.3094L23.5675 22.7286ZM20.368 27.4643C19.0082 28.8121 17.4124 29.8671 15.5738 30.6292L16.1482 32.0148C18.1603 31.1809 19.9211 30.0192 21.424 28.5297L20.368 27.4643ZM15.5761 30.6282C13.7607 31.3736 11.7873 31.75 9.648 31.75V33.25C11.9673 33.25 14.1359 32.8411 16.1459 32.0158L15.5761 30.6282ZM9.648 31.75H0.49V33.25H9.648V31.75ZM7.805 26.695H8.793V25.195H7.805V26.695ZM8.793 26.695C10.1605 26.695 11.4315 26.4577 12.5965 25.9723L12.0195 24.5877C11.0565 24.989 9.98421 25.195 8.793 25.195V26.695ZM12.6034 25.9694C13.7575 25.4748 14.7609 24.7841 15.6059 23.8975L14.5201 22.8625C13.8198 23.5973 12.9865 24.1732 12.0126 24.5906L12.6034 25.9694ZM15.6057 23.8977C16.4611 23.0009 17.1208 21.9542 17.5856 20.765L16.1885 20.219C15.7919 21.2338 15.2356 22.1125 14.5203 22.8623L15.6057 23.8977ZM17.5839 20.7692C18.0659 19.5572 18.302 18.2396 18.302 16.825H16.802C16.802 18.0704 16.5947 19.1975 16.1901 20.2148L17.5839 20.7692ZM18.302 16.825C18.302 15.4248 18.0729 14.1213 17.6046 12.923L16.2074 13.469C16.6005 14.4747 16.802 15.5905 16.802 16.825H18.302ZM17.6056 12.9257C17.1412 11.7238 16.4815 10.6696 15.6247 9.77134L14.5393 10.8067C15.2532 11.5551 15.8095 12.4389 16.2064 13.4663L17.6056 12.9257ZM15.6247 9.77134C14.7667 8.8718 13.7551 8.17946 12.5965 7.69669L12.0195 9.08131C12.9889 9.4852 13.8267 10.0595 14.5393 10.8067L15.6247 9.77134ZM12.6034 7.69964C11.4367 7.19961 10.1632 6.955 8.793 6.955V8.455C9.98149 8.455 11.0513 8.66639 12.0126 9.07836L12.6034 7.69964ZM8.793 6.955H7.805V8.455H8.793V6.955ZM7.055 7.705V25.945H8.555V7.705H7.055ZM30.4827 32.5L29.7875 32.2186C29.6939 32.4497 29.7214 32.7123 29.8608 32.9192C30.0002 33.126 30.2333 33.25 30.4827 33.25V32.5ZM43.1747 1.15V0.399998C42.8691 0.399998 42.5942 0.585343 42.4795 0.868552L43.1747 1.15ZM49.9767 1.15L50.672 0.868914C50.5575 0.585514 50.2824 0.399998 49.9767 0.399998V1.15ZM62.6497 32.5V33.25C62.899 33.25 63.1321 33.1261 63.2715 32.9193C63.4109 32.7126 63.4385 32.4501 63.345 32.2189L62.6497 32.5ZM54.7647 32.5L54.0605 32.7581C54.1688 33.0535 54.45 33.25 54.7647 33.25V32.5ZM52.5227 26.382L53.2269 26.1239C53.1186 25.8285 52.8374 25.632 52.5227 25.632V26.382ZM40.6287 26.382V25.632C40.3147 25.632 40.034 25.8275 39.9252 26.122L40.6287 26.382ZM38.3677 32.5V33.25C38.6816 33.25 38.9624 33.0545 39.0712 32.76L38.3677 32.5ZM43.1177 19.96L42.4189 19.6877C42.3289 19.9184 42.3587 20.1787 42.4985 20.3832C42.6383 20.5877 42.87 20.71 43.1177 20.71V19.96ZM50.0147 19.96V20.71C50.2621 20.71 50.4936 20.588 50.6335 20.3838C50.7733 20.1797 50.8034 19.9197 50.714 19.689L50.0147 19.96ZM46.5757 11.087L47.275 10.816C47.1632 10.5275 46.8858 10.3373 46.5764 10.337C46.267 10.3367 45.9892 10.5264 45.8769 10.8147L46.5757 11.087ZM31.1779 32.7814L43.8699 1.43144L42.4795 0.868552L29.7875 32.2186L31.1779 32.7814ZM43.1747 1.9H49.9767V0.399998H43.1747V1.9ZM49.2814 1.43108L61.9544 32.7811L63.345 32.2189L50.672 0.868914L49.2814 1.43108ZM62.6497 31.75H54.7647V33.25H62.6497V31.75ZM55.4689 32.2419L53.2269 26.1239L51.8185 26.6401L54.0605 32.7581L55.4689 32.2419ZM52.5227 25.632H40.6287V27.132H52.5227V25.632ZM39.9252 26.122L37.6642 32.24L39.0712 32.76L41.3322 26.642L39.9252 26.122ZM38.3677 31.75H30.4827V33.25H38.3677V31.75ZM43.1177 20.71H50.0147V19.21H43.1177V20.71ZM50.714 19.689L47.275 10.816L45.8764 11.358L49.3154 20.231L50.714 19.689ZM45.8769 10.8147L42.4189 19.6877L43.8165 20.2323L47.2745 11.3593L45.8769 10.8147ZM75.8185 32.5L75.1268 32.7901C75.2437 33.0687 75.5163 33.25 75.8185 33.25V32.5ZM62.6705 1.15V0.399998C62.4194 0.399998 62.185 0.525631 62.0459 0.734698C61.9069 0.943765 61.8817 1.20853 61.9788 1.44007L62.6705 1.15ZM70.9355 1.15L71.6363 0.882784C71.5254 0.592081 71.2466 0.399998 70.9355 0.399998V1.15ZM78.6875 21.48L77.9867 21.7472C78.0975 22.0379 78.3763 22.23 78.6875 22.23C78.9986 22.23 79.2774 22.0379 79.3883 21.7472L78.6875 21.48ZM86.4395 1.15V0.399998C86.1283 0.399998 85.8495 0.592081 85.7387 0.882784L86.4395 1.15ZM94.7045 1.15L95.3961 1.44007C95.4932 1.20853 95.468 0.943765 95.329 0.734698C95.19 0.525631 94.9555 0.399998 94.7045 0.399998V1.15ZM81.5565 32.5V33.25C81.8586 33.25 82.1312 33.0687 82.2481 32.7901L81.5565 32.5ZM76.5101 32.2099L63.3621 0.85993L61.9788 1.44007L75.1268 32.7901L76.5101 32.2099ZM62.6705 1.9H70.9355V0.399998H62.6705V1.9ZM70.2347 1.41721L77.9867 21.7472L79.3883 21.2128L71.6363 0.882784L70.2347 1.41721ZM79.3883 21.7472L87.1403 1.41721L85.7387 0.882784L77.9867 21.2128L79.3883 21.7472ZM86.4395 1.9H94.7045V0.399998H86.4395V1.9ZM94.0128 0.85993L80.8648 32.2099L82.2481 32.7901L95.3961 1.44007L94.0128 0.85993ZM81.5565 31.75H75.8185V33.25H81.5565V31.75ZM102.214 32.5H101.464C101.464 32.9142 101.8 33.25 102.214 33.25V32.5ZM102.214 1.15V0.399998C101.8 0.399998 101.464 0.735785 101.464 1.15H102.214ZM120.226 1.15H120.976C120.976 0.735785 120.64 0.399998 120.226 0.399998V1.15ZM120.226 7.572V8.322C120.64 8.322 120.976 7.98621 120.976 7.572H120.226ZM109.529 7.572V6.822C109.115 6.822 108.779 7.15779 108.779 7.572H109.529ZM109.529 13.576H108.779C108.779 13.9902 109.115 14.326 109.529 14.326V13.576ZM119.77 13.576H120.52C120.52 13.1618 120.184 12.826 119.77 12.826V13.576ZM119.77 19.998V20.748C120.184 20.748 120.52 20.4122 120.52 19.998H119.77ZM109.529 19.998V19.248C109.115 19.248 108.779 19.5838 108.779 19.998H109.529ZM109.529 26.078H108.779C108.779 26.4922 109.115 26.828 109.529 26.828V26.078ZM120.226 26.078H120.976C120.976 25.6638 120.64 25.328 120.226 25.328V26.078ZM120.226 32.5V33.25C120.64 33.25 120.976 32.9142 120.976 32.5H120.226ZM102.964 32.5V1.15H101.464V32.5H102.964ZM102.214 1.9H120.226V0.399998H102.214V1.9ZM119.476 1.15V7.572H120.976V1.15H119.476ZM120.226 6.822H109.529V8.322H120.226V6.822ZM108.779 7.572V13.576H110.279V7.572H108.779ZM109.529 14.326H119.77V12.826H109.529V14.326ZM119.02 13.576V19.998H120.52V13.576H119.02ZM119.77 19.248H109.529V20.748H119.77V19.248ZM108.779 19.998V26.078H110.279V19.998H108.779ZM109.529 26.828H120.226V25.328H109.529V26.828ZM119.476 26.078V32.5H120.976V26.078H119.476ZM120.226 31.75H102.214V33.25H120.226V31.75ZM153.019 31.854L152.739 32.5495L152.742 32.5509L153.019 31.854ZM147.452 28.358L146.942 28.9074L146.944 28.9096L147.452 28.358ZM143.671 23.171L142.991 23.487L142.991 23.487L143.671 23.171ZM143.671 10.536L142.992 10.2181L142.991 10.22L143.671 10.536ZM147.452 5.349L147.963 5.89859L147.963 5.89844L147.452 5.349ZM153 1.853L153.279 2.54936L153.281 2.54849L153 1.853ZM165.179 1.378L165.398 0.660492L165.398 0.660492L165.179 1.378ZM169.625 3.449L170.296 3.78441C170.463 3.45154 170.36 3.04697 170.055 2.83397L169.625 3.449ZM166.509 9.681L166.058 10.2798C166.236 10.4139 166.464 10.4621 166.681 10.4112C166.898 10.3603 167.081 10.2156 167.18 10.0164L166.509 9.681ZM163.659 8.294L163.442 9.0117L163.442 9.0117L163.659 8.294ZM156.268 8.465L156.534 9.16633L156.534 9.16633L156.268 8.465ZM153.095 10.384L152.593 9.82728L152.589 9.83081L153.095 10.384ZM150.986 13.272L150.305 12.9587L150.303 12.9622L150.986 13.272ZM150.986 20.435L150.302 20.7418L150.306 20.7513L150.986 20.435ZM153.095 23.304L152.589 23.8572L152.593 23.8607L153.095 23.304ZM156.268 25.223L156.534 24.5217L156.534 24.5217L156.268 25.223ZM166.509 24.007L167.18 23.6716C167.081 23.4724 166.898 23.3277 166.681 23.2768C166.464 23.2259 166.236 23.2741 166.058 23.4082L166.509 24.007ZM169.625 30.239L170.054 30.8547C170.359 30.6419 170.463 30.2368 170.296 29.9036L169.625 30.239ZM165.274 32.291L165.499 33.0066L165.504 33.0051L165.274 32.291ZM159.726 32.358C157.448 32.358 155.307 31.9564 153.296 31.1571L152.742 32.5509C154.937 33.4236 157.267 33.858 159.726 33.858V32.358ZM153.3 31.1585C151.278 30.3424 149.5 29.2249 147.96 27.8064L146.944 28.9096C148.622 30.4551 150.555 31.6682 152.739 32.5495L153.3 31.1585ZM147.963 27.8086C146.424 26.379 145.222 24.729 144.352 22.855L142.991 23.487C143.945 25.5397 145.263 27.3476 146.942 28.9074L147.963 27.8086ZM144.352 22.855C143.487 20.9943 143.053 18.9999 143.053 16.863H141.553C141.553 19.2101 142.031 21.4211 142.991 23.487L144.352 22.855ZM143.053 16.863C143.053 14.7128 143.487 12.7122 144.352 10.852L142.991 10.22C142.031 12.2865 141.553 14.5038 141.553 16.863H143.053ZM144.351 10.8539C145.234 8.96511 146.437 7.31483 147.963 5.89859L146.942 4.7994C145.275 6.34717 143.958 8.15488 142.992 10.2181L144.351 10.8539ZM147.963 5.89844C149.502 4.46819 151.272 3.35195 153.279 2.54936L152.722 1.15664C150.548 2.02605 148.62 3.24047 146.942 4.79956L147.963 5.89844ZM153.281 2.54849C155.291 1.73723 157.425 1.33 159.688 1.33V-0.170001C157.24 -0.170001 154.915 0.271435 152.72 1.15751L153.281 2.54849ZM159.688 1.33C161.53 1.33 163.287 1.58604 164.961 2.0955L165.398 0.660492C163.576 0.105958 161.672 -0.170001 159.688 -0.170001V1.33ZM164.961 2.0955C166.651 2.60971 168.058 3.2694 169.196 4.06402L170.055 2.83397C168.761 1.93126 167.204 1.21028 165.398 0.660492L164.961 2.0955ZM168.955 3.11359L165.839 9.34559L167.18 10.0164L170.296 3.78441L168.955 3.11359ZM166.961 9.08218C166.104 8.43633 165.071 7.9385 163.877 7.5763L163.442 9.0117C164.502 9.3335 165.369 9.76033 166.058 10.2798L166.961 9.08218ZM163.877 7.5763C162.678 7.21242 161.439 7.031 160.163 7.031V8.531C161.294 8.531 162.386 8.69157 163.442 9.0117L163.877 7.5763ZM160.163 7.031C158.687 7.031 157.298 7.27292 156.003 7.76367L156.534 9.16633C157.646 8.74508 158.853 8.531 160.163 8.531V7.031ZM156.003 7.76367C154.716 8.25114 153.577 8.93851 152.593 9.8273L153.598 10.9407C154.437 10.1828 155.414 9.59086 156.534 9.16633L156.003 7.76367ZM152.589 9.83081C151.616 10.7213 150.854 11.7654 150.305 12.9587L151.668 13.5853C152.132 12.5746 152.776 11.6934 153.602 10.9372L152.589 9.83081ZM150.303 12.9622C149.762 14.1565 149.495 15.4538 149.495 16.844H150.995C150.995 15.6502 151.223 14.5662 151.669 13.5818L150.303 12.9622ZM149.495 16.844C149.495 18.2342 149.762 19.5367 150.302 20.7418L151.671 20.1282C151.223 19.1293 150.995 18.0378 150.995 16.844H149.495ZM150.306 20.7513C150.855 21.9316 151.618 22.9681 152.589 23.8572L153.602 22.7508C152.774 21.9932 152.131 21.117 151.666 20.1187L150.306 20.7513ZM152.593 23.8607C153.577 24.7495 154.716 25.4369 156.003 25.9243L156.534 24.5217C155.414 24.0971 154.437 23.5052 153.598 22.7473L152.593 23.8607ZM156.003 25.9243C157.298 26.4151 158.687 26.657 160.163 26.657V25.157C158.853 25.157 157.646 24.9429 156.534 24.5217L156.003 25.9243ZM160.163 26.657C161.439 26.657 162.678 26.4756 163.877 26.1117L163.442 24.6763C162.386 24.9964 161.294 25.157 160.163 25.157V26.657ZM163.877 26.1117C165.071 25.7495 166.104 25.2517 166.961 24.6058L166.058 23.4082C165.369 23.9277 164.502 24.3545 163.442 24.6763L163.877 26.1117ZM165.839 24.3424L168.955 30.5744L170.296 29.9036L167.18 23.6716L165.839 24.3424ZM169.197 29.6233C168.107 30.3814 166.729 31.0362 165.045 31.5769L165.504 33.0051C167.291 32.4311 168.813 31.7179 170.054 30.8547L169.197 29.6233ZM165.05 31.5754C163.393 32.0955 161.62 32.358 159.726 32.358V33.858C161.76 33.858 163.685 33.5758 165.499 33.0066L165.05 31.5754ZM173.576 32.5L172.881 32.2186C172.788 32.4497 172.815 32.7123 172.955 32.9192C173.094 33.126 173.327 33.25 173.576 33.25V32.5ZM186.268 1.15V0.399998C185.963 0.399998 185.688 0.585343 185.573 0.868552L186.268 1.15ZM193.07 1.15L193.766 0.868914C193.651 0.585514 193.376 0.399998 193.07 0.399998V1.15ZM205.743 32.5V33.25C205.993 33.25 206.226 33.1261 206.365 32.9193C206.505 32.7126 206.532 32.4501 206.439 32.2189L205.743 32.5ZM197.858 32.5L197.154 32.7581C197.263 33.0535 197.544 33.25 197.858 33.25V32.5ZM195.616 26.382L196.321 26.1239C196.212 25.8285 195.931 25.632 195.616 25.632V26.382ZM183.722 26.382V25.632C183.408 25.632 183.128 25.8275 183.019 26.122L183.722 26.382ZM181.461 32.5V33.25C181.775 33.25 182.056 33.0545 182.165 32.76L181.461 32.5ZM186.211 19.96L185.513 19.6877C185.423 19.9184 185.452 20.1787 185.592 20.3832C185.732 20.5877 185.964 20.71 186.211 20.71V19.96ZM193.108 19.96V20.71C193.356 20.71 193.587 20.588 193.727 20.3838C193.867 20.1797 193.897 19.9197 193.808 19.689L193.108 19.96ZM189.669 11.087L190.369 10.816C190.257 10.5275 189.98 10.3373 189.67 10.337C189.361 10.3367 189.083 10.5264 188.971 10.8147L189.669 11.087ZM174.272 32.7814L186.964 1.43144L185.573 0.868552L172.881 32.2186L174.272 32.7814ZM186.268 1.9H193.07V0.399998H186.268V1.9ZM192.375 1.43108L205.048 32.7811L206.439 32.2189L193.766 0.868914L192.375 1.43108ZM205.743 31.75H197.858V33.25H205.743V31.75ZM198.563 32.2419L196.321 26.1239L194.912 26.6401L197.154 32.7581L198.563 32.2419ZM195.616 25.632H183.722V27.132H195.616V25.632ZM183.019 26.122L180.758 32.24L182.165 32.76L184.426 26.642L183.019 26.122ZM181.461 31.75H173.576V33.25H181.461V31.75ZM186.211 20.71H193.108V19.21H186.211V20.71ZM193.808 19.689L190.369 10.816L188.97 11.358L192.409 20.231L193.808 19.689ZM188.971 10.8147L185.513 19.6877L186.91 20.2323L190.368 11.3593L188.971 10.8147ZM213.268 32.5H212.518C212.518 32.9142 212.854 33.25 213.268 33.25V32.5ZM213.268 1.15V0.399998C212.854 0.399998 212.518 0.735785 212.518 1.15H213.268ZM220.583 1.15L221.214 0.744715C221.076 0.529884 220.838 0.399998 220.583 0.399998V1.15ZM232.895 20.321L232.264 20.7263C232.444 21.0064 232.787 21.1344 233.106 21.0407C233.425 20.9469 233.645 20.6539 233.645 20.321H232.895ZM232.895 1.15V0.399998C232.481 0.399998 232.145 0.735785 232.145 1.15H232.895ZM240.21 1.15H240.96C240.96 0.735785 240.624 0.399998 240.21 0.399998V1.15ZM240.21 32.5V33.25C240.624 33.25 240.96 32.9142 240.96 32.5H240.21ZM232.895 32.5L232.264 32.9053C232.402 33.1201 232.639 33.25 232.895 33.25V32.5ZM220.583 13.329L221.214 12.9237C221.034 12.6436 220.691 12.5156 220.372 12.6093C220.052 12.7031 219.833 12.9961 219.833 13.329H220.583ZM220.583 32.5V33.25C220.997 33.25 221.333 32.9142 221.333 32.5H220.583ZM214.018 32.5V1.15H212.518V32.5H214.018ZM213.268 1.9H220.583V0.399998H213.268V1.9ZM219.952 1.55528L232.264 20.7263L233.526 19.9157L221.214 0.744715L219.952 1.55528ZM233.645 20.321V1.15H232.145V20.321H233.645ZM232.895 1.9H240.21V0.399998H232.895V1.9ZM239.46 1.15V32.5H240.96V1.15H239.46ZM240.21 31.75H232.895V33.25H240.21V31.75ZM233.526 32.0947L221.214 12.9237L219.952 13.7343L232.264 32.9053L233.526 32.0947ZM219.833 13.329V32.5H221.333V13.329H219.833ZM220.583 31.75H213.268V33.25H220.583V31.75ZM254.534 30.163L254.017 30.7064L254.02 30.7096L254.534 30.163ZM251.418 1.15V0.399998C251.003 0.399998 250.668 0.735785 250.668 1.15H251.418ZM258.752 1.15H259.502C259.502 0.735785 259.166 0.399998 258.752 0.399998V1.15ZM259.873 24.406L259.272 24.8548L259.275 24.8596L259.873 24.406ZM267.587 24.406L266.989 23.9524L266.986 23.9572L267.587 24.406ZM268.727 1.15V0.399998C268.312 0.399998 267.977 0.735785 267.977 1.15H268.727ZM276.061 1.15H276.811C276.811 0.735785 276.475 0.399998 276.061 0.399998V1.15ZM272.945 30.163L273.46 30.7081L273.462 30.7064L272.945 30.163ZM263.749 32.358C259.807 32.358 256.95 31.4035 255.047 29.6164L254.02 30.7096C256.298 32.8492 259.584 33.858 263.749 33.858V32.358ZM255.051 29.6196C253.168 27.8292 252.168 25.136 252.168 21.404H250.668C250.668 25.3987 251.744 28.5448 254.017 30.7064L255.051 29.6196ZM252.168 21.404V1.15H250.668V21.404H252.168ZM251.418 1.9H258.752V0.399998H251.418V1.9ZM258.002 1.15V19.257H259.502V1.15H258.002ZM258.002 19.257C258.002 21.721 258.371 23.6492 259.272 24.8548L260.474 23.9572C259.879 23.1614 259.502 21.657 259.502 19.257H258.002ZM259.275 24.8596C260.232 26.1193 261.793 26.657 263.73 26.657V25.157C262.044 25.157 261.033 24.694 260.47 23.9524L259.275 24.8596ZM263.73 26.657C265.676 26.657 267.242 26.1209 268.188 24.8548L266.986 23.9572C266.437 24.6924 265.431 25.157 263.73 25.157V26.657ZM268.184 24.8596C269.1 23.6531 269.477 21.7224 269.477 19.257H267.977C267.977 21.6556 267.593 23.1576 266.989 23.9524L268.184 24.8596ZM269.477 19.257V1.15H267.977V19.257H269.477ZM268.727 1.9H276.061V0.399998H268.727V1.9ZM275.311 1.15V21.404H276.811V1.15H275.311ZM275.311 21.404C275.311 25.136 274.31 27.8292 272.428 29.6196L273.462 30.7064C275.734 28.5448 276.811 25.3987 276.811 21.404H275.311ZM272.429 29.6179C270.54 31.4033 267.691 32.358 263.749 32.358V33.858C267.913 33.858 271.194 32.8494 273.46 30.7081L272.429 29.6179ZM294.799 31.854L294.519 32.5495L294.522 32.5509L294.799 31.854ZM289.232 28.358L288.722 28.9074L288.724 28.9096L289.232 28.358ZM285.451 23.171L284.771 23.487L284.771 23.487L285.451 23.171ZM285.451 10.536L284.772 10.2181L284.771 10.22L285.451 10.536ZM289.232 5.349L289.743 5.89859L289.743 5.89844L289.232 5.349ZM294.78 1.853L295.059 2.54936L295.061 2.54849L294.78 1.853ZM306.959 1.378L307.178 0.660492L307.178 0.660492L306.959 1.378ZM311.405 3.449L312.076 3.78441C312.243 3.45154 312.14 3.04697 311.835 2.83397L311.405 3.449ZM308.289 9.681L307.838 10.2798C308.016 10.4139 308.244 10.4621 308.461 10.4112C308.678 10.3603 308.861 10.2156 308.96 10.0164L308.289 9.681ZM305.439 8.294L305.222 9.0117L305.222 9.0117L305.439 8.294ZM298.048 8.465L298.314 9.16633L298.314 9.16633L298.048 8.465ZM294.875 10.384L294.373 9.82728L294.369 9.83081L294.875 10.384ZM292.766 13.272L292.085 12.9587L292.083 12.9622L292.766 13.272ZM292.766 20.435L292.082 20.7418L292.086 20.7513L292.766 20.435ZM294.875 23.304L294.369 23.8572L294.373 23.8607L294.875 23.304ZM298.048 25.223L298.314 24.5217L298.314 24.5217L298.048 25.223ZM308.289 24.007L308.96 23.6716C308.861 23.4724 308.678 23.3277 308.461 23.2768C308.244 23.2259 308.016 23.2741 307.838 23.4082L308.289 24.007ZM311.405 30.239L311.834 30.8547C312.14 30.6419 312.243 30.2368 312.076 29.9036L311.405 30.239ZM307.054 32.291L307.279 33.0066L307.284 33.0051L307.054 32.291ZM301.506 32.358C299.228 32.358 297.087 31.9564 295.077 31.1571L294.522 32.5509C296.717 33.4236 299.047 33.858 301.506 33.858V32.358ZM295.08 31.1585C293.058 30.3424 291.28 29.2249 289.741 27.8064L288.724 28.9096C290.402 30.4551 292.335 31.6682 294.519 32.5495L295.08 31.1585ZM289.743 27.8086C288.204 26.379 287.002 24.729 286.132 22.855L284.771 23.487C285.725 25.5397 287.043 27.3476 288.722 28.9074L289.743 27.8086ZM286.132 22.855C285.267 20.9943 284.833 18.9999 284.833 16.863H283.333C283.333 19.2101 283.812 21.4211 284.771 23.487L286.132 22.855ZM284.833 16.863C284.833 14.7128 285.268 12.7122 286.132 10.852L284.771 10.22C283.811 12.2865 283.333 14.5038 283.333 16.863H284.833ZM286.131 10.8539C287.015 8.96511 288.218 7.31483 289.743 5.89859L288.722 4.7994C287.055 6.34717 285.738 8.15488 284.772 10.2181L286.131 10.8539ZM289.743 5.89844C291.282 4.46819 293.052 3.35195 295.059 2.54936L294.502 1.15664C292.328 2.02605 290.4 3.24047 288.722 4.79956L289.743 5.89844ZM295.061 2.54849C297.071 1.73723 299.205 1.33 301.468 1.33V-0.170001C299.02 -0.170001 296.695 0.271435 294.5 1.15751L295.061 2.54849ZM301.468 1.33C303.311 1.33 305.067 1.58604 306.741 2.0955L307.178 0.660492C305.356 0.105958 303.452 -0.170001 301.468 -0.170001V1.33ZM306.741 2.0955C308.431 2.60971 309.838 3.2694 310.976 4.06402L311.835 2.83397C310.541 1.93126 308.984 1.21028 307.178 0.660492L306.741 2.0955ZM310.735 3.11359L307.619 9.34559L308.96 10.0164L312.076 3.78441L310.735 3.11359ZM308.741 9.08218C307.885 8.43633 306.851 7.9385 305.657 7.5763L305.222 9.0117C306.282 9.3335 307.149 9.76033 307.838 10.2798L308.741 9.08218ZM305.657 7.5763C304.458 7.21242 303.219 7.031 301.943 7.031V8.531C303.075 8.531 304.166 8.69157 305.222 9.0117L305.657 7.5763ZM301.943 7.031C300.467 7.031 299.078 7.27292 297.783 7.76367L298.314 9.16633C299.426 8.74508 300.633 8.531 301.943 8.531V7.031ZM297.783 7.76367C296.496 8.25114 295.357 8.93851 294.373 9.8273L295.378 10.9407C296.217 10.1828 297.194 9.59086 298.314 9.16633L297.783 7.76367ZM294.369 9.83081C293.396 10.7213 292.634 11.7654 292.085 12.9587L293.448 13.5853C293.913 12.5746 294.556 11.6934 295.382 10.9372L294.369 9.83081ZM292.083 12.9622C291.542 14.1565 291.275 15.4538 291.275 16.844H292.775C292.775 15.6502 293.003 14.5662 293.449 13.5818L292.083 12.9622ZM291.275 16.844C291.275 18.2342 291.542 19.5367 292.082 20.7418L293.451 20.1282C293.003 19.1293 292.775 18.0378 292.775 16.844H291.275ZM292.086 20.7513C292.635 21.9316 293.398 22.9681 294.369 23.8572L295.382 22.7508C294.554 21.9932 293.911 21.117 293.446 20.1187L292.086 20.7513ZM294.373 23.8607C295.357 24.7495 296.496 25.4369 297.783 25.9243L298.314 24.5217C297.194 24.0971 296.217 23.5052 295.378 22.7473L294.373 23.8607ZM297.783 25.9243C299.078 26.4151 300.467 26.657 301.943 26.657V25.157C300.633 25.157 299.426 24.9429 298.314 24.5217L297.783 25.9243ZM301.943 26.657C303.219 26.657 304.458 26.4756 305.657 26.1117L305.222 24.6763C304.166 24.9964 303.075 25.157 301.943 25.157V26.657ZM305.657 26.1117C306.851 25.7495 307.885 25.2517 308.741 24.6058L307.838 23.4082C307.149 23.9277 306.282 24.3545 305.222 24.6763L305.657 26.1117ZM307.619 24.3424L310.735 30.5744L312.076 29.9036L308.96 23.6716L307.619 24.3424ZM310.977 29.6233C309.887 30.3814 308.509 31.0362 306.825 31.5769L307.284 33.0051C309.071 32.4311 310.593 31.7179 311.834 30.8547L310.977 29.6233ZM306.83 31.5754C305.173 32.0955 303.4 32.358 301.506 32.358V33.858C303.54 33.858 305.465 33.5758 307.279 33.0066L306.83 31.5754ZM326.814 31.854L327.114 31.1668L327.114 31.1668L326.814 31.854ZM321.779 28.377L321.239 28.8981L321.241 28.9004L321.779 28.377ZM318.378 23.19L317.684 23.4747L317.686 23.48L318.378 23.19ZM318.378 10.517L317.685 10.2285L317.684 10.2308L318.378 10.517ZM321.779 5.33L322.316 5.8534L322.318 5.85111L321.779 5.33ZM344.161 5.33L343.621 5.85111L343.623 5.8534L344.161 5.33ZM347.543 10.517L346.849 10.8017L346.851 10.807L347.543 10.517ZM347.543 23.19L346.85 22.9015L346.849 22.9038L347.543 23.19ZM344.161 28.377L344.698 28.9004L344.7 28.8981L344.161 28.377ZM339.126 31.854L338.825 31.1668L338.825 31.1668L339.126 31.854ZM336.162 25.375L335.851 24.6922L335.848 24.6938L336.162 25.375ZM338.67 23.494L338.101 23.0045L338.101 23.0052L338.67 23.494ZM340.304 20.587L339.595 20.3403L339.594 20.345L340.304 20.587ZM340.304 13.12L339.593 13.3596L339.596 13.3692L340.304 13.12ZM338.67 10.213L338.097 10.6975L338.105 10.7069L338.67 10.213ZM336.162 8.313L335.848 8.99424L335.851 8.99577L336.162 8.313ZM329.759 8.313L329.448 7.63022L329.445 7.63177L329.759 8.313ZM327.251 10.213L326.682 9.72347L326.682 9.72417L327.251 10.213ZM325.617 13.12L324.908 12.8733L324.907 12.878L325.617 13.12ZM325.617 20.587L324.906 20.8266L324.909 20.8362L325.617 20.587ZM327.251 23.494L326.678 23.9785L326.686 23.9879L327.251 23.494ZM329.759 25.375L329.445 26.0562L329.448 26.0578L329.759 25.375ZM332.97 32.358C330.876 32.358 328.927 31.9593 327.114 31.1668L326.513 32.5412C328.525 33.4207 330.68 33.858 332.97 33.858V32.358ZM327.114 31.1668C325.289 30.3692 323.691 29.2656 322.316 27.8536L321.241 28.9004C322.754 30.4524 324.513 31.6668 326.513 32.5412L327.114 31.1668ZM322.318 27.8559C320.94 26.4298 319.857 24.7796 319.069 22.9L317.686 23.48C318.544 25.527 319.729 27.3349 321.239 28.8981L322.318 27.8559ZM319.071 22.9053C318.3 21.0246 317.912 19.0065 317.912 16.844H316.412C316.412 19.1908 316.834 21.4034 317.684 23.4747L319.071 22.9053ZM317.912 16.844C317.912 14.6814 318.3 12.6703 319.071 10.8032L317.684 10.2308C316.834 12.2904 316.412 14.4972 316.412 16.844H317.912ZM319.07 10.8055C319.858 8.91379 320.94 7.26523 322.316 5.8534L321.241 4.8066C319.729 6.35876 318.544 8.16821 317.685 10.2285L319.07 10.8055ZM322.318 5.85111C323.694 4.42721 325.291 3.31817 327.114 2.52122L326.513 1.14678C324.511 2.02183 322.751 3.24346 321.239 4.80889L322.318 5.85111ZM327.114 2.52122C328.927 1.72868 330.876 1.33 332.97 1.33V-0.170001C330.68 -0.170001 328.525 0.26732 326.513 1.14678L327.114 2.52122ZM332.97 1.33C335.063 1.33 337.012 1.72868 338.825 2.52122L339.426 1.14678C337.414 0.26732 335.259 -0.170001 332.97 -0.170001V1.33ZM338.825 2.52122C340.648 3.31817 342.245 4.42721 343.621 5.85111L344.7 4.80889C343.188 3.24346 341.428 2.02183 339.426 1.14678L338.825 2.52122ZM343.623 5.8534C344.998 7.26437 346.073 8.91162 346.849 10.8017L348.236 10.2323C347.39 8.17037 346.211 6.35963 344.698 4.8066L343.623 5.8534ZM346.851 10.807C347.633 12.6732 348.028 14.683 348.028 16.844H349.528C349.528 14.4957 349.098 12.2875 348.234 10.227L346.851 10.807ZM348.028 16.844C348.028 19.005 347.633 21.0218 346.85 22.9015L348.235 23.4785C349.098 21.4062 349.528 19.1923 349.528 16.844H348.028ZM346.849 22.9038C346.074 24.7818 344.998 26.4306 343.621 27.8559L344.7 28.8981C346.211 27.334 347.39 25.5249 348.236 23.4762L346.849 22.9038ZM343.623 27.8536C342.248 29.2656 340.65 30.3692 338.825 31.1668L339.426 32.5412C341.427 31.6668 343.185 30.4524 344.698 28.9004L343.623 27.8536ZM338.825 31.1668C337.012 31.9593 335.063 32.358 332.97 32.358V33.858C335.259 33.858 337.414 33.4207 339.426 32.5412L338.825 31.1668ZM332.97 26.79C334.232 26.79 335.405 26.5492 336.475 26.0562L335.848 24.6938C334.993 25.0874 334.037 25.29 332.97 25.29V26.79ZM336.472 26.0578C337.546 25.5694 338.47 24.8764 339.238 23.9828L338.101 23.0052C337.475 23.733 336.728 24.2939 335.851 24.6922L336.472 26.0578ZM339.238 23.9835C340.015 23.0816 340.605 22.0268 341.013 20.829L339.594 20.345C339.242 21.3765 338.743 22.2597 338.101 23.0045L339.238 23.9835ZM341.012 20.8337C341.436 19.6164 341.643 18.2839 341.643 16.844H340.143C340.143 18.1401 339.957 19.3029 339.595 20.3403L341.012 20.8337ZM341.643 16.844C341.643 15.4043 341.436 14.077 341.011 12.8708L339.596 13.3692C339.957 14.3923 340.143 15.5477 340.143 16.844H341.643ZM341.014 12.8804C340.606 11.6693 340.015 10.6115 339.234 9.71912L338.105 10.7069C338.743 11.4358 339.241 12.316 339.593 13.3596L341.014 12.8804ZM339.242 9.72854C338.474 8.82111 337.549 8.11978 336.472 7.63022L335.851 8.99577C336.725 9.39289 337.471 9.95822 338.097 10.6975L339.242 9.72854ZM336.475 7.63177C335.405 7.13878 334.232 6.898 332.97 6.898V8.398C334.037 8.398 334.993 8.60055 335.848 8.99423L336.475 7.63177ZM332.97 6.898C331.707 6.898 330.529 7.13882 329.448 7.63023L330.069 8.99577C330.938 8.60052 331.902 8.398 332.97 8.398V6.898ZM329.445 7.63177C328.382 8.1212 327.46 8.82087 326.682 9.72347L327.819 10.7025C328.46 9.95846 329.21 9.39147 330.072 8.99423L329.445 7.63177ZM326.682 9.72417C325.917 10.614 325.328 11.6676 324.908 12.8733L326.325 13.3667C326.69 12.3178 327.191 11.4334 327.819 10.7018L326.682 9.72417ZM324.907 12.878C324.496 14.082 324.297 15.4067 324.297 16.844H325.797C325.797 15.5453 325.977 14.3873 326.326 13.362L324.907 12.878ZM324.297 16.844C324.297 18.2815 324.496 19.6114 324.906 20.8266L326.327 20.3474C325.977 19.3079 325.797 18.1425 325.797 16.844H324.297ZM324.909 20.8362C325.329 22.0286 325.917 23.0792 326.678 23.9785L327.823 23.0095C327.191 22.2622 326.689 21.3747 326.324 20.3378L324.909 20.8362ZM326.686 23.9879C327.464 24.8766 328.385 25.568 329.445 26.0562L330.072 24.6938C329.207 24.2953 328.456 23.7327 327.815 23.0001L326.686 23.9879ZM329.448 26.0578C330.529 26.5492 331.707 26.79 332.97 26.79V25.29C331.902 25.29 330.938 25.0875 330.069 24.6922L329.448 26.0578ZM360.494 32.5H359.744C359.744 32.9142 360.08 33.25 360.494 33.25V32.5ZM360.494 7.591H361.244C361.244 7.17678 360.908 6.841 360.494 6.841V7.591ZM353.141 7.591H352.391C352.391 8.00521 352.727 8.341 353.141 8.341V7.591ZM353.141 1.15V0.399998C352.727 0.399998 352.391 0.735785 352.391 1.15H353.141ZM375.181 1.15H375.931C375.931 0.735785 375.595 0.399998 375.181 0.399998V1.15ZM375.181 7.591V8.341C375.595 8.341 375.931 8.00521 375.931 7.591H375.181ZM367.828 7.591V6.841C367.414 6.841 367.078 7.17678 367.078 7.591H367.828ZM367.828 32.5V33.25C368.242 33.25 368.578 32.9142 368.578 32.5H367.828ZM361.244 32.5V7.591H359.744V32.5H361.244ZM360.494 6.841H353.141V8.341H360.494V6.841ZM353.891 7.591V1.15H352.391V7.591H353.891ZM353.141 1.9H375.181V0.399998H353.141V1.9ZM374.431 1.15V7.591H375.931V1.15H374.431ZM375.181 6.841H367.828V8.341H375.181V6.841ZM367.078 7.591V32.5H368.578V7.591H367.078ZM367.828 31.75H360.494V33.25H367.828V31.75Z" fill="white"/>
</svg>
